<?xml version="1.0" encoding="UTF-8" standalone="no"?>
<!-- Created with Inkscape (http://www.inkscape.org/) -->

<svg
   version="1.1"
   id="svg2"
   width="321.25333"
   height="120.94667"
   viewBox="0 0 321.25333 120.94667"
   sodipodi:docname="LMU_OSC_Pfad.ai"
   xmlns:inkscape="http://www.inkscape.org/namespaces/inkscape"
   xmlns:sodipodi="http://sodipodi.sourceforge.net/DTD/sodipodi-0.dtd"
   xmlns="http://www.w3.org/2000/svg"
   xmlns:svg="http://www.w3.org/2000/svg">
  <defs
     id="defs6">
    <clipPath
       clipPathUnits="userSpaceOnUse"
       id="clipPath16">
      <path
         d="M 135.129,36.445 H 235.807 V 80.756 H 135.129 Z"
         id="path14" />
    </clipPath>
    <clipPath
       clipPathUnits="userSpaceOnUse"
       id="clipPath44">
      <path
         d="M 0,90.71 H 240.94 V 0 H 0 Z"
         id="path42" />
    </clipPath>
  </defs>
  <sodipodi:namedview
     id="namedview4"
     pagecolor="#ffffff"
     bordercolor="#000000"
     borderopacity="0.25"
     inkscape:showpageshadow="2"
     inkscape:pageopacity="0.0"
     inkscape:pagecheckerboard="0"
     inkscape:deskcolor="#d1d1d1" />
  <g
     id="g8"
     inkscape:groupmode="layer"
     inkscape:label="LMU_OSC_Pfad"
     transform="matrix(1.3333333,0,0,-1.3333333,0,120.94667)">
    <g
       id="g10">
      <g
         id="g12"
         clip-path="url(#clipPath16)">
        <g
           id="g18"
           transform="translate(136.2207,74.6343)">
          <path
             d="M 0,0 C 0,0 47.065,-36.405 49.248,-36.405 51.429,-36.405 98.494,0 98.494,0"
             style="fill:none;stroke:#008c3f;stroke-width:3.571;stroke-linecap:butt;stroke-linejoin:miter;stroke-miterlimit:4;stroke-dasharray:none;stroke-opacity:1"
             id="path20" />
        </g>
      </g>
    </g>
    <g
       id="g22"
       transform="translate(143.5205,74.8042)">
      <path
         d="M 0,0 2.528,2.961 42.073,-33.374 Z"
         style="fill:#bad376;fill-opacity:1;fill-rule:nonzero;stroke:none"
         id="path24" />
    </g>
    <g
       id="g26"
       transform="translate(151.2324,80.7563)">
      <path
         d="m 0,0 -2.754,-2.754 36.9,-34.149 z"
         style="fill:#bad376;fill-opacity:1;fill-rule:nonzero;stroke:none"
         id="path28" />
    </g>
    <g
       id="g30"
       transform="translate(227.668,74.8042)">
      <path
         d="M 0,0 -2.529,2.961 -42.074,-33.374 Z"
         style="fill:#bad376;fill-opacity:1;fill-rule:nonzero;stroke:none"
         id="path32" />
    </g>
    <g
       id="g34"
       transform="translate(219.9551,80.7563)">
      <path
         d="M 0,0 -34.147,-36.903 2.754,-2.754 Z"
         style="fill:#bad376;fill-opacity:1;fill-rule:nonzero;stroke:none"
         id="path36" />
    </g>
    <g
       id="g38">
      <g
         id="g40"
         clip-path="url(#clipPath44)">
        <g
           id="g46"
           transform="translate(28.4971,73.6416)">
          <path
             d="m 0,0 c -7.8,0 -10.32,-8.22 -10.32,-15.899 0,-8.4 1.86,-16.5 10.32,-16.5 8.04,0 10.319,7.26 10.319,16.5 C 10.319,-7.02 8.16,0 0,0 m 0,-38.039 c -12.66,0 -18.479,9.42 -18.479,22.14 C -18.479,-1.2 -9.36,5.64 0,5.64 c 10.02,0 18.479,-5.94 18.479,-21.539 0,-14.88 -7.859,-22.14 -18.479,-22.14"
             style="fill:#008c3f;fill-opacity:1;fill-rule:nonzero;stroke:none"
             id="path48" />
        </g>
        <g
           id="g50"
           transform="translate(68.6367,35.6025)">
          <path
             d="m 0,0 c -8.28,0 -13.02,3.84 -15,6.18 l 3.3,5.28 c 3,-3.42 6.48,-5.82 11.82,-5.82 5.279,0 7.739,3 7.739,5.7 0,3.3 -2.46,4.86 -5.699,6.24 l -8.28,3.54 c -4.5,1.92 -7.98,5.339 -7.98,10.499 0,8.1 7.98,12.06 14.7,12.06 5.58,0 10.859,-2.1 13.859,-5.7 l -3.3,-5.22 c -2.4,2.94 -5.339,5.28 -10.559,5.28 -4.62,0 -6.72,-2.7 -6.72,-5.1 0,-3 2.7,-4.44 5.28,-5.52 l 8.279,-3.54 c 4.74,-2.04 8.58,-5.039 8.58,-11.399 C 16.019,8.16 12.599,0 0,0"
             style="fill:#008c3f;fill-opacity:1;fill-rule:nonzero;stroke:none"
             id="path52" />
        </g>
        <g
           id="g54"
           transform="translate(111.5952,35.6025)">
          <path
             d="m 0,0 c -13.559,0 -19.919,10.56 -19.919,22.14 0,11.339 7.74,21.539 19.919,21.539 6,0 10.68,-1.98 13.86,-5.34 l -3.06,-5.82 c -2.34,2.64 -4.68,5.4 -10.68,5.4 -7.079,0 -11.879,-6.9 -11.879,-15.779 0,-8.7 5.159,-16.38 11.94,-16.38 4.979,0 8.279,1.679 11.819,5.46 l 3,-6 C 10.14,1.5 6.6,0 0,0"
             style="fill:#008c3f;fill-opacity:1;fill-rule:nonzero;stroke:none"
             id="path56" />
        </g>
        <g
           id="g58"
           transform="translate(11.6504,12.7393)">
          <path
             d="M 0,0 V 11.898 H 2.21 V 1.768 H 8.091 L 8.091,0 Z"
             style="fill:#1a171b;fill-opacity:1;fill-rule:nonzero;stroke:none"
             id="path60" />
        </g>
        <g
           id="g62"
           transform="translate(33.3076,12.7393)">
          <path
             d="M 0,0 -0.408,9.043 -3.417,1.632 H -5.422 L -8.499,9.043 -8.856,0 h -2.159 l 0.697,11.898 h 2.754 l 3.247,-7.886 3.076,7.886 H 1.513 L 2.21,0 Z"
             style="fill:#1a171b;fill-opacity:1;fill-rule:nonzero;stroke:none"
             id="path64" />
        </g>
        <g
           id="g66"
           transform="translate(43.8311,12.501)">
          <path
             d="m 0,0 c -2.55,0 -4.947,0.918 -4.947,4.998 v 7.139 h 2.21 V 4.794 c 0,-1.887 0.901,-3.162 2.737,-3.162 1.802,0 2.686,1.19 2.686,3.162 v 7.343 h 2.21 V 4.998 C 4.896,1.207 2.448,0 0,0"
             style="fill:#1a171b;fill-opacity:1;fill-rule:nonzero;stroke:none"
             id="path68" />
        </g>
        <g
           id="g70"
           transform="translate(62.1226,23.2783)">
          <path
             d="m 0,0 c -2.21,0 -2.924,-2.329 -2.924,-4.505 0,-2.38 0.527,-4.675 2.924,-4.675 2.277,0 2.923,2.058 2.923,4.675 C 2.923,-1.989 2.312,0 0,0 m 0,-10.777 c -3.587,0 -5.236,2.669 -5.236,6.272 0,4.165 2.584,6.103 5.236,6.103 2.838,0 5.235,-1.683 5.235,-6.103 0,-4.216 -2.227,-6.272 -5.235,-6.272"
             style="fill:#1a171b;fill-opacity:1;fill-rule:nonzero;stroke:none"
             id="path72" />
        </g>
        <g
           id="g74"
           transform="translate(73.9375,20.1338)">
          <path
             d="m 0,0 c -1.037,0 -1.734,-1.411 -1.734,-2.023 v -2.431 c 0,-0.68 0.561,-1.784 1.734,-1.784 1.53,0 1.955,1.478 1.955,3.246 C 1.955,-1.395 1.462,0 0,0 m 0.357,-7.599 c -1.037,0 -1.547,0.494 -2.023,1.122 v -4.572 H -3.774 V 1.02 h 1.87 l 0.102,-1.208 c 0.442,0.664 1.275,1.582 2.516,1.582 1.682,0 3.451,-1.377 3.451,-4.42 0,-3.06 -1.666,-4.573 -3.808,-4.573"
             style="fill:#1a171b;fill-opacity:1;fill-rule:nonzero;stroke:none"
             id="path76" />
        </g>
        <g
           id="g78"
           transform="translate(84.001,20.2529)">
          <path
             d="M 0,0 C -1.156,0 -1.734,-1.055 -1.734,-2.329 H 1.734 C 1.734,-1.037 1.19,0 0,0 m -1.734,-3.604 c 0.085,-2.074 1.122,-2.771 2.091,-2.771 1.156,0 1.938,0.392 2.686,1.037 l 0.561,-1.411 c -0.578,-0.476 -1.7,-0.969 -3.281,-0.969 -3.332,0 -4.233,2.261 -4.233,4.572 0,2.075 1.157,4.42 3.927,4.42 2.754,0 3.808,-2.159 3.808,-4.13 v -0.748 z"
             style="fill:#1a171b;fill-opacity:1;fill-rule:nonzero;stroke:none"
             id="path80" />
        </g>
        <g
           id="g82"
           transform="translate(95.748,12.7393)">
          <path
             d="m 0,0 v 5.508 c 0,1.07 -0.561,1.887 -1.547,1.887 -1.156,0 -1.802,-1.258 -1.802,-1.905 V 0 h -2.108 v 8.414 h 1.871 l 0.102,-1.207 c 0.442,0.663 1.275,1.581 2.617,1.581 1.836,0 2.975,-1.139 2.975,-2.873 L 2.108,0 Z"
             style="fill:#1a171b;fill-opacity:1;fill-rule:nonzero;stroke:none"
             id="path84" />
        </g>
        <g
           id="g86"
           transform="translate(109.8413,12.501)">
          <path
             d="m 0,0 c -2.346,0 -3.688,1.088 -4.25,1.751 l 0.936,1.496 c 0.849,-0.969 1.835,-1.649 3.348,-1.649 1.496,0 2.193,0.85 2.193,1.615 0,0.934 -0.697,1.377 -1.615,1.767 l -2.346,1.003 c -1.275,0.544 -2.261,1.513 -2.261,2.975 0,2.295 2.261,3.417 4.165,3.417 1.581,0 3.077,-0.595 3.927,-1.615 L 3.162,9.281 c -0.68,0.833 -1.513,1.496 -2.992,1.496 -1.309,0 -1.904,-0.764 -1.904,-1.445 0,-0.85 0.765,-1.258 1.496,-1.563 L 2.108,6.766 C 3.451,6.188 4.539,5.338 4.539,3.536 4.539,2.313 3.57,0 0,0"
             style="fill:#1a171b;fill-opacity:1;fill-rule:nonzero;stroke:none"
             id="path88" />
        </g>
        <g
           id="g90"
           transform="translate(120.9077,12.5352)">
          <path
             d="m 0,0 c -2.957,0 -4.385,1.904 -4.385,4.572 0,2.244 1.53,4.42 4.419,4.42 1.361,0 2.398,-0.408 2.857,-0.849 L 2.33,6.681 C 1.786,7.19 1.208,7.649 0.034,7.649 c -1.274,0 -2.21,-1.223 -2.21,-3.077 0,-1.921 0.8,-3.229 2.244,-3.229 1.14,0 1.701,0.442 2.347,1.02 L 2.993,0.935 C 2.432,0.459 1.547,0 0,0"
             style="fill:#1a171b;fill-opacity:1;fill-rule:nonzero;stroke:none"
             id="path92" />
        </g>
        <path
           d="m 126.383,21.153 h 2.108 v -8.414 h -2.108 z m 1.055,1.649 c -0.613,0 -1.208,0.545 -1.208,1.224 0,0.663 0.561,1.224 1.208,1.224 0.628,0 1.206,-0.595 1.206,-1.224 0,-0.679 -0.629,-1.224 -1.206,-1.224"
           style="fill:#1a171b;fill-opacity:1;fill-rule:nonzero;stroke:none"
           id="path94" />
        <g
           id="g96"
           transform="translate(135.0859,20.2529)">
          <path
             d="M 0,0 C -1.156,0 -1.733,-1.055 -1.733,-2.329 H 1.734 C 1.734,-1.037 1.19,0 0,0 m -1.733,-3.604 c 0.085,-2.074 1.122,-2.771 2.09,-2.771 1.156,0 1.938,0.392 2.686,1.037 l 0.561,-1.411 c -0.579,-0.476 -1.7,-0.969 -3.281,-0.969 -3.332,0 -4.232,2.261 -4.232,4.572 0,2.075 1.155,4.42 3.927,4.42 2.753,0 3.807,-2.159 3.807,-4.13 v -0.748 z"
             style="fill:#1a171b;fill-opacity:1;fill-rule:nonzero;stroke:none"
             id="path98" />
        </g>
        <g
           id="g100"
           transform="translate(146.833,12.7393)">
          <path
             d="m 0,0 v 5.508 c 0,1.07 -0.561,1.887 -1.547,1.887 -1.155,0 -1.802,-1.258 -1.802,-1.905 V 0 h -2.107 v 8.414 h 1.869 l 0.103,-1.207 c 0.441,0.663 1.274,1.581 2.617,1.581 1.836,0 2.974,-1.139 2.974,-2.873 L 2.107,0 Z"
             style="fill:#1a171b;fill-opacity:1;fill-rule:nonzero;stroke:none"
             id="path102" />
        </g>
        <g
           id="g104"
           transform="translate(155.8594,12.5352)">
          <path
             d="m 0,0 c -2.957,0 -4.385,1.904 -4.385,4.572 0,2.244 1.53,4.42 4.419,4.42 1.361,0 2.398,-0.408 2.857,-0.849 L 2.329,6.681 C 1.785,7.19 1.207,7.649 0.034,7.649 c -1.274,0 -2.21,-1.223 -2.21,-3.077 0,-1.921 0.8,-3.229 2.244,-3.229 1.139,0 1.701,0.442 2.346,1.02 L 2.992,0.935 C 2.432,0.459 1.547,0 0,0"
             style="fill:#1a171b;fill-opacity:1;fill-rule:nonzero;stroke:none"
             id="path106" />
        </g>
        <g
           id="g108"
           transform="translate(164.5469,20.2529)">
          <path
             d="M 0,0 C -1.156,0 -1.733,-1.055 -1.733,-2.329 H 1.734 C 1.734,-1.037 1.19,0 0,0 m -1.733,-3.604 c 0.085,-2.074 1.122,-2.771 2.09,-2.771 1.156,0 1.938,0.392 2.686,1.037 l 0.561,-1.411 c -0.579,-0.476 -1.7,-0.969 -3.281,-0.969 -3.332,0 -4.232,2.261 -4.232,4.572 0,2.075 1.155,4.42 3.927,4.42 2.753,0 3.807,-2.159 3.807,-4.13 v -0.748 z"
             style="fill:#1a171b;fill-opacity:1;fill-rule:nonzero;stroke:none"
             id="path110" />
        </g>
        <g
           id="g112"
           transform="translate(181.3594,12.501)">
          <path
             d="m 0,0 c -3.842,0 -5.644,2.992 -5.644,6.272 0,3.213 2.194,6.103 5.644,6.103 1.7,0 3.025,-0.561 3.927,-1.513 L 3.06,9.213 c -0.664,0.748 -1.326,1.53 -3.026,1.53 -2.006,0 -3.366,-1.955 -3.366,-4.471 0,-2.464 1.462,-4.64 3.383,-4.64 1.411,0 2.345,0.476 3.348,1.547 L 4.25,1.479 C 2.873,0.425 1.87,0 0,0"
             style="fill:#1a171b;fill-opacity:1;fill-rule:nonzero;stroke:none"
             id="path114" />
        </g>
        <g
           id="g116"
           transform="translate(191.2031,20.2529)">
          <path
             d="M 0,0 C -1.156,0 -1.733,-1.055 -1.733,-2.329 H 1.734 C 1.734,-1.037 1.19,0 0,0 m -1.733,-3.604 c 0.085,-2.074 1.122,-2.771 2.09,-2.771 1.156,0 1.938,0.392 2.686,1.037 l 0.561,-1.411 c -0.579,-0.476 -1.7,-0.969 -3.281,-0.969 -3.332,0 -4.232,2.261 -4.232,4.572 0,2.075 1.155,4.42 3.927,4.42 2.753,0 3.807,-2.159 3.807,-4.13 v -0.748 z"
             style="fill:#1a171b;fill-opacity:1;fill-rule:nonzero;stroke:none"
             id="path118" />
        </g>
        <g
           id="g120"
           transform="translate(202.9492,12.7393)">
          <path
             d="m 0,0 v 5.508 c 0,1.07 -0.561,1.887 -1.547,1.887 -1.156,0 -1.802,-1.258 -1.802,-1.905 V 0 h -2.107 v 8.414 h 1.869 l 0.103,-1.207 c 0.441,0.663 1.274,1.581 2.617,1.581 1.836,0 2.974,-1.139 2.974,-2.873 L 2.107,0 Z"
             style="fill:#1a171b;fill-opacity:1;fill-rule:nonzero;stroke:none"
             id="path122" />
        </g>
        <g
           id="g124"
           transform="translate(211.0254,12.5352)">
          <path
             d="m 0,0 c -2.057,0 -2.55,0.935 -2.55,2.38 v 4.794 h -1.326 v 1.444 h 1.326 v 1.735 l 2.108,0.594 V 8.618 H 1.513 V 7.174 h -1.955 v -4.59 c 0,-0.867 0.339,-1.105 0.833,-1.105 0.408,0 0.713,0.221 0.934,0.374 L 1.666,0.442 C 1.325,0.238 0.561,0 0,0"
             style="fill:#1a171b;fill-opacity:1;fill-rule:nonzero;stroke:none"
             id="path126" />
        </g>
        <g
           id="g128"
           transform="translate(218.1475,20.2529)">
          <path
             d="M 0,0 C -1.155,0 -1.733,-1.055 -1.733,-2.329 H 1.734 C 1.734,-1.037 1.19,0 0,0 m -1.733,-3.604 c 0.085,-2.074 1.121,-2.771 2.09,-2.771 1.156,0 1.938,0.392 2.686,1.037 l 0.561,-1.411 c -0.579,-0.476 -1.7,-0.969 -3.281,-0.969 -3.332,0 -4.232,2.261 -4.232,4.572 0,2.075 1.155,4.42 3.927,4.42 2.753,0 3.807,-2.159 3.807,-4.13 v -0.748 z"
             style="fill:#1a171b;fill-opacity:1;fill-rule:nonzero;stroke:none"
             id="path130" />
        </g>
        <g
           id="g132"
           transform="translate(229.8945,19.4873)">
          <path
             d="m 0,0 c -0.204,0.137 -0.646,0.493 -1.274,0.493 -1.343,0 -2.04,-1.019 -2.04,-1.988 v -5.253 h -2.108 v 8.414 h 1.869 L -3.45,0.459 c 0.441,0.663 1.036,1.581 2.447,1.581 0.663,0 1.326,-0.34 1.581,-0.527 z"
             style="fill:#1a171b;fill-opacity:1;fill-rule:nonzero;stroke:none"
             id="path134" />
        </g>
      </g>
    </g>
  </g>
</svg>
